<?xml version="1.0" encoding="UTF-8"?>
<svg id="Ebene_9" data-name="Ebene 9" xmlns="http://www.w3.org/2000/svg" viewBox="0 0 743.53 577">
  <defs>
    <style>
      .cls-1 {
        fill: #33a8c2;
      }
    </style>
  </defs>
  <path class="cls-1" d="M172.66,247.33c0,44.26-34.46,72.55-82.7,72.55H0V58.72h79.8c50.06,0,81.98,27.93,81.98,70.37,0,24.3-13.06,44.25-32.65,53.69,23.58,8.7,43.53,33,43.53,64.56ZM103.38,174.43c16.68-4.36,30.1-19.96,30.1-43.89,0-30.11-19.95-48.97-52.96-48.97H26.84v92.86h76.54ZM26.84,297.03h62.39c32.28,0,55.13-19.95,55.13-51.14s-20.31-49.69-47.16-49.69H26.84v100.83Z"/>
  <path class="cls-1" d="M390.27,229.2c0,54.77-39.17,95.03-92.5,95.03s-92.13-40.26-92.13-95.03,39.17-95.04,92.13-95.04,92.5,40.27,92.5,95.04ZM363.79,229.2c0-41.35-27.57-71.1-66.02-71.1s-66.02,29.74-66.02,71.1,27.93,71.09,66.02,71.09,66.02-29.74,66.02-71.09Z"/>
  <g>
    <path class="cls-1" d="M455.01,185.05c0-41.08,17.38-74.78,45.4-94.04,5.73-3.94,12.04-6.96,18.47-9.61l122.75-50.46,3.48-30.94-144.73,65.38c-43,20.87-70.86,65.1-70.86,119.67l.13,61.64c0,46.21-21.99,83.09-56.4,100.58L106.92,483.1v30.94s271.22-144.03,271.22-144.03c4.09-2.43,8.32-4.63,12.48-6.96,39.38-22.02,64.52-64.53,64.52-116.36l-.13-61.64Z"/>
    <path class="cls-1" d="M504.21,216.53c0-41.08,17.38-74.78,45.4-94.04,5.73-3.94,12.04-6.96,18.47-9.61l122.75-50.46,3.48-30.94-144.73,65.38c-43,20.87-70.86,65.1-70.86,119.67l.13,61.64c0,46.21-21.99,83.09-56.4,100.58l-266.34,135.82v30.94s271.22-144.03,271.22-144.03c4.09-2.43,8.32-4.63,12.48-6.96,39.38-22.02,64.52-64.53,64.52-116.36l-.13-61.64Z"/>
    <path class="cls-1" d="M553.42,248.01c0-41.08,17.38-74.78,45.4-94.04,5.73-3.94,12.04-6.96,18.47-9.61l122.75-50.46,3.48-30.94-144.73,65.38c-43,20.87-70.86,65.1-70.86,119.67l.13,61.64c0,46.21-21.99,83.09-56.4,100.58l-266.34,135.82v30.94s271.22-144.03,271.22-144.03c4.09-2.43,8.32-4.63,12.48-6.96,39.38-22.02,64.52-64.53,64.52-116.36l-.13-61.64Z"/>
  </g>
</svg>